<?xml version="1.0" encoding="UTF-8" standalone="no"?>
<!-- Created with Inkscape (http://www.inkscape.org/) -->

<svg
   xmlns:dc="http://purl.org/dc/elements/1.1/"
   xmlns:cc="http://creativecommons.org/ns#"
   xmlns:rdf="http://www.w3.org/1999/02/22-rdf-syntax-ns#"
   xmlns:svg="http://www.w3.org/2000/svg"
   xmlns="http://www.w3.org/2000/svg"
   xmlns:sodipodi="http://sodipodi.sourceforge.net/DTD/sodipodi-0.dtd"
   xmlns:inkscape="http://www.inkscape.org/namespaces/inkscape"
   width="744.09448819"
   height="1052.3622047"
   id="svg2"
   version="1.1"
   inkscape:version="0.48.4 r9939"
   sodipodi:docname="Icon.svg">
  <defs
     id="defs4" />
  <sodipodi:namedview
     id="base"
     pagecolor="#ffffff"
     bordercolor="#666666"
     borderopacity="1.0"
     inkscape:pageopacity="0.0"
     inkscape:pageshadow="2"
     inkscape:zoom="2.8"
     inkscape:cx="354.7003"
     inkscape:cy="591.73221"
     inkscape:document-units="px"
     inkscape:current-layer="layer1"
     showgrid="false"
     inkscape:window-width="1600"
     inkscape:window-height="837"
     inkscape:window-x="-8"
     inkscape:window-y="-8"
     inkscape:window-maximized="1" />
  <metadata
     id="metadata7">
    <rdf:RDF>
      <cc:Work
         rdf:about="">
        <dc:format>image/svg+xml</dc:format>
        <dc:type
           rdf:resource="http://purl.org/dc/dcmitype/StillImage" />
        <dc:title></dc:title>
      </cc:Work>
    </rdf:RDF>
  </metadata>
  <g
     inkscape:label="Layer 1"
     inkscape:groupmode="layer"
     id="layer1">
    <rect
       style="fill:#7e1a20;fill-opacity:1;stroke:none"
       id="rect3795"
       width="370.0368"
       height="243.4393"
       x="171.05301"
       y="336.9866"
       inkscape:export-filename="C:\Projects\MyCon\Marketing\Icon.png"
       inkscape:export-xdpi="119.99847"
       inkscape:export-ydpi="119.99847" />
    <path
       style="fill:#ffffff;stroke:#ffffff;stroke-width:1px;stroke-linecap:butt;stroke-linejoin:miter;stroke-opacity:0.61290323999999996;fill-opacity:0.56914896"
       d="M 487.40625 442.75 L 378.8125 487.1875 L 410.125 566.46875 L 524.78125 518.5 L 487.40625 442.75 z M 482.34375 457.40625 L 510.125 513.46875 L 418.71875 550.84375 L 395.96875 493.25 L 482.34375 457.40625 z "
       id="path2996"
       inkscape:export-filename="C:\Projects\MyCon\Marketing\Icon.png"
       inkscape:export-xdpi="119.99847"
       inkscape:export-ydpi="119.99847" />
    <path
       style="font-size:medium;font-style:normal;font-variant:normal;font-weight:normal;font-stretch:normal;text-indent:0;text-align:start;text-decoration:none;line-height:normal;letter-spacing:normal;word-spacing:normal;text-transform:none;direction:ltr;block-progression:tb;writing-mode:lr-tb;text-anchor:start;baseline-shift:baseline;color:#000000;fill:#ffffff;fill-opacity:1;stroke:none;stroke-width:15;marker:none;visibility:visible;display:inline;overflow:visible;enable-background:accumulate;font-family:Sans;-inkscape-font-specification:Sans"
       d="m 324.40625,352.78125 c -8.1822,0.4923 -16.36287,1.15804 -24.48449,2.2819 -6.48332,0.91356 -12.91409,2.19541 -19.23223,3.91791 -7.57226,2.01644 -14.99375,4.58836 -22.25459,7.5276 -9.29931,3.92386 -18.18832,8.79949 -26.54494,14.45706 -7.94888,5.26908 -15.28249,11.60072 -21.11189,19.18033 -7.79232,10.23791 -13.0393,22.28236 -15.92893,34.78648 -2.47527,10.75475 -3.24788,21.91 -2.22005,32.90012 1.08022,12.88693 4.91066,25.40344 10.0526,37.21931 2.86459,6.41015 5.79349,12.92678 10.37443,18.32699 2.314,2.80444 4.8277,5.46154 7.64009,7.77034 3.87953,3.36269 8.13418,6.45061 12.99125,8.22571 2.66055,0.78392 5.45595,0.9897 8.21157,0.90745 5.09132,0.15199 1.94368,-0.55928 0.2626,-1.96046 -1.06457,-0.82462 -1.93989,-1.83883 -2.9489,-2.73077 -6.34706,-6.10604 -11.77714,-13.20915 -15.68185,-21.119 -3.06576,-5.83202 -5.45359,-11.99438 -7.58931,-18.21823 -2.73792,-8.45329 -4.95491,-17.07479 -6.66241,-25.79398 -1.61238,-8.87252 -2.19146,-18.01716 -0.77463,-26.95777 1.62275,-10.82271 5.71092,-21.23399 11.65933,-30.40434 4.7157,-7.2029 10.81782,-13.49341 17.91559,-18.37188 4.41564,-3.1478 9.08422,-5.93522 13.8465,-8.52288 12.53423,-6.68205 26.04962,-11.47733 39.92891,-14.45874 10.9377,-2.39373 22.12529,-3.53317 33.3089,-3.82767 10.84448,-0.32912 21.69484,0.33404 32.47037,1.53943 10.67537,1.09198 21.3141,2.57499 31.84017,4.67543 8.55944,1.72939 17.15791,3.50987 25.37981,6.5063 7.1866,2.69022 13.81471,6.63875 20.25787,10.75928 6.13737,4.20663 11.13501,9.81857 15.62854,15.69554 5.65175,7.41915 11.03941,15.0509 15.89918,23.01524 3.22554,5.28859 6.72012,11.36981 9.27097,17.01705 3.94593,-1.61663 7.54125,-3.20885 11.69643,-4.77232 -2.67692,-7.1242 -8.55537,-21.60471 -11.95762,-26.52055 -5.5555,-8.49417 -11.01192,-17.19837 -18.34415,-24.30801 -7.25193,-7.21379 -15.48496,-13.41422 -24.24631,-18.67559 -5.27266,-3.09704 -10.93524,-5.48209 -16.77076,-7.29137 -6.95491,-2.35734 -14.01948,-4.43332 -21.21816,-5.90236 -13.12289,-2.3566 -26.35543,-4.06196 -39.61063,-5.47359 -10.31762,-1.00689 -20.68558,-1.52849 -31.05326,-1.39996 z m -15.96875,57.9375 c -12.48941,0.72434 -24.95942,3.1765 -36.5,8.09375 -7.82633,3.26785 -14.68405,8.62235 -20.21015,15.01468 -5.65783,6.635 -9.84038,14.7675 -10.82295,23.50568 -0.67083,5.47154 3e-4,11.11879 2.10876,16.22425 3.41561,8.38274 9.39264,15.36817 13.37534,23.4529 2.38872,4.94692 3.93675,10.4696 3.37839,16.00104 -0.38502,3.56958 -1.54072,7.23299 -4.16501,9.80284 -2.52822,2.67136 -5.99679,4.24354 -9.5453,5.03506 -1.25486,0.36381 -2.59729,0.48253 -3.80658,0.96355 -2.80758,-0.0711 -2.99272,-0.14656 0.82428,2.502 2.79564,2.18054 5.4595,4.52696 8.14447,6.84175 2.86481,0.94794 5.79841,-0.31401 8.49283,-1.23654 5.72897,-2.3415 10.47273,-7.05003 12.67122,-12.85718 2.78333,-6.84498 3.05229,-14.50486 1.65714,-21.70157 -1.42987,-7.26147 -4.67535,-14.03938 -8.72495,-20.19105 -2.36034,-3.89812 -5.30343,-7.46625 -7.12749,-11.66991 -1.53682,-3.56198 -2.33422,-7.47943 -1.92321,-11.35903 0.39615,-6.09503 3.29045,-11.87493 7.61561,-16.13866 7.18518,-7.79146 17.02833,-12.86005 27.3449,-15.01846 7.39158,-1.53583 14.9648,-2.00676 22.50013,-2.04635 8.62983,0.0618 17.2867,1.24636 25.49847,3.95461 7.60604,2.43467 14.98911,6.13844 20.68242,11.83544 4.26913,4.37615 7.29605,9.78137 9.65056,15.38275 2.71775,6.2276 5.01023,12.65806 6.48477,19.29905 0.97126,2.59377 2.13106,7.6598 2.56516,10.49254 3.74175,-1.5623 9.8717,-3.78356 13.51423,-5.57153 -1.32932,-15.18884 -8.18212,-32.3266 -15.70441,-43.23601 -3.9855,-5.71081 -9.07168,-10.67828 -15.03375,-14.30068 -8.24684,-5.03616 -17.34369,-8.69122 -26.78005,-10.76868 -8.57514,-1.93198 -17.39311,-2.50857 -26.16483,-2.30624 z"
       id="path3004"
       inkscape:connector-curvature="0"
       sodipodi:nodetypes="cccccccccccccccccscccccccccccccccccccccccccccccccccccccccccccccccccccc"
       inkscape:export-filename="C:\Projects\MyCon\Marketing\Icon.png"
       inkscape:export-xdpi="119.99847"
       inkscape:export-ydpi="119.99847" />
    <path
       style="fill:#ffffff;stroke:none;stroke-width:1px;stroke-linecap:butt;stroke-linejoin:miter;stroke-opacity:1;fill-opacity:1"
       d="M 482.34375 457.375 L 395.96875 493.25 L 418.71875 550.8125 L 510.125 513.4375 L 482.34375 457.375 z M 470.375 471.15625 C 472.06247 471.15629 473.84372 471.42974 475.71875 471.96875 L 476.5625 471.28125 L 477.78125 471.28125 L 475.0625 479.875 L 474.0625 479.875 C 473.92185 475.32817 472.49216 473.06254 469.75 473.0625 C 466.72654 473.06254 464.66404 475.67973 463.5625 480.90625 L 461.59375 490.0625 L 466.65625 490.0625 L 466.125 492.5 L 461.09375 492.5 L 457.0625 514.90625 C 455.67968 522.54686 453.42578 527.8789 450.34375 530.9375 C 447.26172 533.99608 442.99219 535.53123 437.53125 535.53125 C 434.25001 535.53123 431.6172 535.2031 429.625 534.5 L 432.09375 526.25 L 433.25 526.25 C 433.85938 530.91405 435.90625 533.24998 439.375 533.25 C 441.55469 533.24998 443.53125 532.31248 445.3125 530.4375 C 447.09375 528.56248 448.30468 525.92968 448.9375 522.53125 L 454.40625 492.5 L 448.3125 492.5 L 448.78125 490.0625 L 454.90625 490.0625 C 456.66405 477.4766 461.82029 471.15629 470.375 471.15625 z "
       id="path3774"
       inkscape:export-filename="C:\Projects\MyCon\Marketing\Icon.png"
       inkscape:export-xdpi="119.99847"
       inkscape:export-ydpi="119.99847" />
    <g
       style="font-size:72px;font-style:italic;font-variant:normal;font-weight:bold;font-stretch:normal;line-height:125%;letter-spacing:0px;word-spacing:0px;fill:#000000;fill-opacity:1;stroke:none;font-family:Perpetua;-inkscape-font-specification:Perpetua Bold Italic"
       id="text3805"
       inkscape:export-filename="C:\Projects\MyCon\Marketing\Icon.png"
       inkscape:export-xdpi="119.99847"
       inkscape:export-ydpi="119.99847" />
  </g>
</svg>
